<svg width="3434" height="999" viewBox="0 0 3434 999" fill="none" xmlns="http://www.w3.org/2000/svg">
<g filter="url(#filter0_d_2109_189)">
<path fill-rule="evenodd" clip-rule="evenodd" d="M828.348 763.365C859.854 784.384 896.611 794.894 938.62 794.894C985.57 794.894 1027.58 782.983 1064.64 759.161C1102.33 735.339 1131.98 701.708 1153.6 658.268C1175.84 614.828 1186.96 563.33 1186.96 503.776C1186.96 444.921 1175.84 393.774 1153.6 350.334C1131.98 306.894 1102.33 273.263 1064.64 249.441C1027.58 224.919 985.57 212.657 938.62 212.657C894.758 212.657 857.075 223.167 825.568 244.187C809.001 255.239 794.484 269.295 782.016 286.354V221.065H643.945V990.374H788.503V726.623C800.29 741.259 813.572 753.506 828.348 763.365ZM788.503 671.931C788.503 547.571 779.236 504.827 779.236 504.827L782.016 336.672V286.354C781.147 287.543 780.288 288.747 779.439 289.965C769.304 304.506 760.587 321.126 753.29 339.825C736.61 382.564 728.27 437.214 728.27 503.776C728.27 569.636 736.919 624.287 754.216 667.727C763.729 690.421 775.158 710.053 788.503 726.623V671.931ZM977.539 641.452C959.006 654.064 937.693 660.37 913.6 660.37C889.507 660.37 867.885 654.064 848.735 641.452C829.584 628.841 814.449 610.974 803.329 587.853C792.209 564.031 786.649 536.005 786.649 503.776C786.649 470.845 792.209 442.82 803.329 419.698C814.449 396.577 829.584 378.71 848.735 366.099C867.885 353.487 889.507 347.181 913.6 347.181C937.693 347.181 959.006 353.487 977.539 366.099C996.689 378.71 1011.82 396.577 1022.94 419.698C1034.68 442.82 1040.55 470.845 1040.55 503.776C1040.55 536.005 1034.68 564.031 1022.94 587.853C1011.82 610.974 996.689 628.841 977.539 641.452Z" fill="#161414"/>
<path fill-rule="evenodd" clip-rule="evenodd" d="M1350.45 744.447C1383.19 778.078 1428.91 794.894 1487.59 794.894C1509.83 794.894 1531.15 792.091 1551.53 786.486C1572.54 780.18 1590.45 771.072 1605.28 759.161L1566.36 643.554C1550.3 657.567 1530.84 664.574 1507.98 664.574C1488.83 664.574 1473.69 658.268 1462.57 645.656C1451.45 632.344 1445.89 613.777 1445.89 589.955V474.874V359.793H1570.06L1704.03 280.509L1570.06 233.677H1445.89V96H1301.34V233.677H1224.43L1121 299.426L1224.43 359.793H1301.34V592.057C1301.34 659.319 1317.71 710.116 1350.45 744.447ZM1301.34 359.793H1445.89V233.677H1301.34V359.793Z" fill="#161414"/>
<path fill-rule="evenodd" clip-rule="evenodd" d="M106.931 767.569C139.673 785.785 176.739 794.894 218.129 794.894C256.43 794.894 291.643 785.085 323.767 765.467C342.872 753.61 359.243 738.534 372.879 720.236V786.486C372.879 786.486 510.17 724.046 510.023 786.486C509.876 848.926 510.023 221.065 510.023 221.065H365.466V500.623C365.466 534.954 360.524 563.681 350.64 586.802C340.755 609.223 327.165 626.038 309.867 637.249C292.57 647.758 272.801 653.013 250.562 653.013C218.438 653.013 193.418 642.153 175.503 620.433C158.206 598.012 149.557 563.33 149.557 516.387V221.065H5V540.559C5 598.713 13.9576 646.707 31.8728 684.542C49.788 721.676 74.8075 749.352 106.931 767.569ZM372.879 630.943V720.236C373.849 718.935 374.804 717.618 375.746 716.285C384.26 704.231 391.644 690.848 397.899 676.134L372.879 630.943Z" fill="#161414"/>
<path fill-rule="evenodd" clip-rule="evenodd" d="M2603.6 212.657C2643.14 212.657 2678.04 221.766 2708.31 239.983C2739.2 257.499 2763.3 284.824 2780.59 321.958C2798.51 358.392 2807.47 405.335 2807.47 462.788V786.486H2662.91V488.011C2662.91 442.469 2654.57 408.838 2637.89 387.118C2621.21 365.398 2597.73 354.538 2567.46 354.538C2546.46 354.538 2527.62 360.143 2510.94 371.354C2494.26 381.863 2481.29 397.978 2472.02 419.698C2462.75 441.418 2458.12 469.094 2458.12 502.725V786.486H2313.56V488.011C2313.56 442.469 2305.22 408.838 2288.54 387.118C2272.48 365.398 2249.31 354.538 2219.04 354.538C2198.04 354.538 2179.2 360.143 2162.52 371.354C2145.84 381.863 2132.87 397.978 2123.6 419.698C2114.33 441.418 2109.7 469.094 2109.7 502.725C2109.7 502.725 2109.7 845.546 2109.7 786.486C2109.7 727.426 1965.14 786.486 1965.14 786.486V221.065H2103.21V286.304C2093.28 299.278 2084.63 313.965 2077.27 330.366L2103.21 375.558V286.304C2116.62 268.793 2132.38 254.404 2150.47 243.136C2182.6 222.817 2219.04 212.657 2259.82 212.657C2305.53 212.657 2345.38 225.97 2379.35 252.594C2397.44 266.143 2412.31 283.52 2423.98 304.725L2423.94 304.785C2413.12 320.388 2404.13 337.673 2396.96 356.64L2447.93 372.405C2442.62 346.652 2434.64 324.092 2423.98 304.725C2438.33 284.041 2455.89 266.314 2476.65 251.543C2513.72 225.619 2556.04 212.657 2603.6 212.657Z" fill="#161414"/>
<path fill-rule="evenodd" clip-rule="evenodd" d="M3188.07 794.894C3131.24 794.894 3081.2 782.282 3037.95 757.059C2995.33 731.836 2962.28 697.504 2938.8 654.064C2915.33 609.923 2903.59 559.827 2903.59 503.776C2903.59 447.023 2915.02 396.927 2937.88 353.487C2961.35 309.347 2993.17 275.015 3033.32 250.492C3073.48 225.269 3118.88 212.657 3169.54 212.657C3218.34 212.657 3262.2 224.568 3301.12 248.39C3340.66 271.512 3371.86 305.143 3394.71 349.283C3417.57 392.723 3429 444.921 3429 505.878C3429 512.183 3428.69 519.54 3428.07 527.948C3427.46 535.655 3426.84 543.012 3426.22 550.018H3049.02C3046.58 537.432 3045.37 524.12 3045.37 510.081V484.858C3045.37 474.17 3046.03 464.01 3047.35 454.38H3292.86C3292.94 455.017 3293.02 455.656 3293.1 456.297C3294.12 464.741 3294.64 473.56 3294.64 482.756L3350.24 454.38H3292.86C3290.51 436.567 3285.85 420.453 3278.88 406.036C3268.38 384.316 3253.86 367.5 3235.33 355.589C3216.8 342.978 3195.18 336.672 3170.47 336.672C3145.75 336.672 3123.82 342.978 3104.67 355.589C3086.14 367.5 3071.62 384.666 3061.12 407.087C3054.34 421.101 3049.75 436.865 3047.35 454.38H3021.28V550.018H3049.02C3051.93 565.07 3056.58 579.083 3062.97 592.057C3075.33 615.178 3092.32 633.045 3113.94 645.656C3136.18 657.567 3162.13 663.523 3191.78 663.523C3218.34 663.523 3241.51 658.969 3261.28 649.86C3281.66 640.752 3300.2 627.089 3316.88 608.872L3393.79 703.46C3370.93 732.887 3342.2 755.658 3307.61 771.773C3273.01 787.187 3233.17 794.894 3188.07 794.894Z" fill="#161414"/>
<path d="M1729.38 221.098L1801.33 147.958L1873.93 221.098V730.886V786.486C1873.87 735.481 1729.38 786.519 1729.38 786.519L1729.38 299.458L1729.38 221.098Z" fill="#161414"/>
</g>
<path d="M1873 72.5C1873 112.541 1840.54 145 1800.5 145C1760.46 145 1728 112.541 1728 72.5C1728 32.4594 1760.46 0 1800.5 0C1840.54 0 1873 32.4594 1873 72.5Z" fill="#161414"/>
<defs>
<filter id="filter0_d_2109_189" x="1" y="96" width="3432" height="902.374" filterUnits="userSpaceOnUse" color-interpolation-filters="sRGB">
<feFlood flood-opacity="0" result="BackgroundImageFix"/>
<feColorMatrix in="SourceAlpha" type="matrix" values="0 0 0 0 0 0 0 0 0 0 0 0 0 0 0 0 0 0 127 0" result="hardAlpha"/>
<feOffset dy="4"/>
<feGaussianBlur stdDeviation="2"/>
<feComposite in2="hardAlpha" operator="out"/>
<feColorMatrix type="matrix" values="0 0 0 0 0 0 0 0 0 0 0 0 0 0 0 0 0 0 0.25 0"/>
<feBlend mode="normal" in2="BackgroundImageFix" result="effect1_dropShadow_2109_189"/>
<feBlend mode="normal" in="SourceGraphic" in2="effect1_dropShadow_2109_189" result="shape"/>
</filter>
</defs>
</svg>
