<svg width="48" height="48" viewBox="0 0 48 48" fill="none" xmlns="http://www.w3.org/2000/svg">
<rect width="48" height="48" rx="4" fill="black"/>
<path d="M13.5928 34.2817C10.2735 34.2817 7.67821 33.2605 5.80693 31.218C3.93564 29.1755 3 26.2594 3 22.4697V8H8.41336V22.2482C8.41336 24.7091 8.87004 26.4809 9.7834 27.5637C10.6968 28.6464 11.9777 29.1878 13.6262 29.1878C15.2747 29.1878 16.5557 28.6464 17.469 27.5637C18.3824 26.4809 18.8391 24.7091 18.8391 22.2482V8H24.1856V22.4697C24.1856 26.2594 23.25 29.1755 21.3787 31.218C19.5074 33.2605 16.9121 34.2817 13.5928 34.2817Z" fill="url(#paint0_linear_2110_199)"/>
<path d="M36.0446 34.1343C34.5297 34.1343 33.2042 33.7651 32.0681 33.0269C30.932 32.2886 30.0409 31.169 29.3948 29.6678C28.7711 28.1421 28.4592 26.2227 28.4592 23.9095C28.4592 21.5717 28.7599 19.6522 29.3614 18.1511C29.9629 16.65 30.8317 15.5303 31.9679 14.7921C33.104 14.0538 34.4629 13.6847 36.0446 13.6847C37.7376 13.6847 39.2525 14.1154 40.5891 14.9767C41.948 15.8133 43.0173 16.9945 43.797 18.5203C44.599 20.046 45 21.8424 45 23.9095C45 26.0012 44.599 27.8099 43.797 29.3356C43.0173 30.8614 41.948 32.0426 40.5891 32.8792C39.2525 33.7159 37.7376 34.1343 36.0446 34.1343ZM25.4184 41V13.98H30.3973V18.0404L30.2971 23.9464L30.6312 29.8155V41H25.4184ZM35.1424 29.4095C36.0112 29.4095 36.7797 29.188 37.448 28.745C38.1386 28.3021 38.6844 27.6746 39.0854 26.8625C39.5087 26.0258 39.7203 25.0415 39.7203 23.9095C39.7203 22.7529 39.5087 21.7686 39.0854 20.9565C38.6844 20.1444 38.1386 19.5169 37.448 19.0739C36.7797 18.631 36.0112 18.4095 35.1424 18.4095C34.2735 18.4095 33.4938 18.631 32.8032 19.0739C32.1127 19.5169 31.5669 20.1444 31.1659 20.9565C30.7649 21.7686 30.5644 22.7529 30.5644 23.9095C30.5644 25.0415 30.7649 26.0258 31.1659 26.8625C31.5669 27.6746 32.1127 28.3021 32.8032 28.745C33.4938 29.188 34.2735 29.4095 35.1424 29.4095Z" fill="url(#paint1_linear_2110_199)"/>
<g filter="url(#filter0_f_2110_199)">
<path d="M13.5928 34.2817C10.2735 34.2817 7.67821 33.2605 5.80693 31.218C3.93564 29.1755 3 26.2594 3 22.4697V8H8.41336V22.2482C8.41336 24.7091 8.87004 26.4809 9.7834 27.5637C10.6968 28.6464 11.9777 29.1878 13.6262 29.1878C15.2747 29.1878 16.5557 28.6464 17.469 27.5637C18.3824 26.4809 18.8391 24.7091 18.8391 22.2482V8H24.1856V22.4697C24.1856 26.2594 23.25 29.1755 21.3787 31.218C19.5074 33.2605 16.9121 34.2817 13.5928 34.2817Z" fill="url(#paint2_linear_2110_199)"/>
<path d="M36.0446 34.1343C34.5297 34.1343 33.2042 33.7651 32.0681 33.0269C30.932 32.2886 30.0409 31.169 29.3948 29.6678C28.7711 28.1421 28.4592 26.2227 28.4592 23.9095C28.4592 21.5717 28.7599 19.6522 29.3614 18.1511C29.9629 16.65 30.8317 15.5303 31.9679 14.7921C33.104 14.0538 34.4629 13.6847 36.0446 13.6847C37.7376 13.6847 39.2525 14.1154 40.5891 14.9767C41.948 15.8133 43.0173 16.9945 43.797 18.5203C44.599 20.046 45 21.8424 45 23.9095C45 26.0012 44.599 27.8099 43.797 29.3356C43.0173 30.8614 41.948 32.0426 40.5891 32.8792C39.2525 33.7159 37.7376 34.1343 36.0446 34.1343ZM25.4184 41V13.98H30.3973V18.0404L30.2971 23.9464L30.6312 29.8155V41H25.4184ZM35.1424 29.4095C36.0112 29.4095 36.7797 29.188 37.448 28.745C38.1386 28.3021 38.6844 27.6746 39.0854 26.8625C39.5087 26.0258 39.7203 25.0415 39.7203 23.9095C39.7203 22.7529 39.5087 21.7686 39.0854 20.9565C38.6844 20.1444 38.1386 19.5169 37.448 19.0739C36.7797 18.631 36.0112 18.4095 35.1424 18.4095C34.2735 18.4095 33.4938 18.631 32.8032 19.0739C32.1127 19.5169 31.5669 20.1444 31.1659 20.9565C30.7649 21.7686 30.5644 22.7529 30.5644 23.9095C30.5644 25.0415 30.7649 26.0258 31.1659 26.8625C31.5669 27.6746 32.1127 28.3021 32.8032 28.745C33.4938 29.188 34.2735 29.4095 35.1424 29.4095Z" fill="url(#paint3_linear_2110_199)"/>
</g>
<defs>
<filter id="filter0_f_2110_199" x="0.0999999" y="5.1" width="47.8" height="38.8" filterUnits="userSpaceOnUse" color-interpolation-filters="sRGB">
<feFlood flood-opacity="0" result="BackgroundImageFix"/>
<feBlend mode="normal" in="SourceGraphic" in2="BackgroundImageFix" result="shape"/>
<feGaussianBlur stdDeviation="1.45" result="effect1_foregroundBlur_2110_199"/>
</filter>
<linearGradient id="paint0_linear_2110_199" x1="3" y1="24.5" x2="45" y2="24.5" gradientUnits="userSpaceOnUse">
<stop stop-color="#FEA100"/>
<stop offset="0.5" stop-color="#EF0000"/>
<stop offset="1" stop-color="#FFA600"/>
</linearGradient>
<linearGradient id="paint1_linear_2110_199" x1="3" y1="24.5" x2="45" y2="24.5" gradientUnits="userSpaceOnUse">
<stop stop-color="#FEA100"/>
<stop offset="0.5" stop-color="#EF0000"/>
<stop offset="1" stop-color="#FFA600"/>
</linearGradient>
<linearGradient id="paint2_linear_2110_199" x1="3" y1="24.5" x2="45" y2="24.5" gradientUnits="userSpaceOnUse">
<stop stop-color="#FEA100"/>
<stop offset="0.5" stop-color="#EF0000"/>
<stop offset="1" stop-color="#FFA600"/>
</linearGradient>
<linearGradient id="paint3_linear_2110_199" x1="3" y1="24.5" x2="45" y2="24.5" gradientUnits="userSpaceOnUse">
<stop stop-color="#FEA100"/>
<stop offset="0.5" stop-color="#EF0000"/>
<stop offset="1" stop-color="#FFA600"/>
</linearGradient>
</defs>
</svg>
